<?xml version="1.0" encoding="UTF-8"?><svg id="_레이어_3" xmlns="http://www.w3.org/2000/svg" viewBox="0 0 264 179"><path d="M5.91,0C2.65,0,0,2.65,0,5.91V45.39c0,30.61,102,14.61,102,69.65v45.5c0,10.19,8.26,18.46,18.46,18.46h143.54V0H5.91Zm11.09,18c0,1.1-.9,2-2,2h-6c-1.1,0-2-.9-2-2V8c0-1.1,.9-2,2-2h6c1.1,0,2,.9,2,2v10Zm17,0c0,1.1-.9,2-2,2h-6c-1.1,0-2-.9-2-2V8c0-1.1,.9-2,2-2h6c1.1,0,2,.9,2,2v10Zm17,0c0,1.1-.9,2-2,2h-6c-1.1,0-2-.9-2-2V8c0-1.1,.9-2,2-2h6c1.1,0,2,.9,2,2v10Zm17,0c0,1.1-.9,2-2,2h-6c-1.1,0-2-.9-2-2V8c0-1.1,.9-2,2-2h6c1.1,0,2,.9,2,2v10Zm17,0c0,1.1-.9,2-2,2h-6c-1.1,0-2-.9-2-2V8c0-1.1,.9-2,2-2h6c1.1,0,2,.9,2,2v10Zm17,0c0,1.1-.9,2-2,2h-6c-1.1,0-2-.9-2-2V8c0-1.1,.9-2,2-2h6c1.1,0,2,.9,2,2v10Zm17,152c0,1.1-.9,2-2,2h-6c-1.1,0-2-.9-2-2v-10c0-1.1,.9-2,2-2h6c1.1,0,2,.9,2,2v10Zm0-152c0,1.1-.9,2-2,2h-6c-1.1,0-2-.9-2-2V8c0-1.1,.9-2,2-2h6c1.1,0,2,.9,2,2v10Zm17,152c0,1.1-.9,2-2,2h-6c-1.1,0-2-.9-2-2v-10c0-1.1,.9-2,2-2h6c1.1,0,2,.9,2,2v10Zm0-152c0,1.1-.9,2-2,2h-6c-1.1,0-2-.9-2-2V8c0-1.1,.9-2,2-2h6c1.1,0,2,.9,2,2v10Zm17,152c0,1.1-.9,2-2,2h-6c-1.1,0-2-.9-2-2v-10c0-1.1,.9-2,2-2h6c1.1,0,2,.9,2,2v10Zm0-152c0,1.1-.9,2-2,2h-6c-1.1,0-2-.9-2-2V8c0-1.1,.9-2,2-2h6c1.1,0,2,.9,2,2v10Zm18,152c0,1.1-.9,2-2,2h-6c-1.1,0-2-.9-2-2v-10c0-1.1,.9-2,2-2h6c1.1,0,2,.9,2,2v10Zm0-152c0,1.1-.9,2-2,2h-6c-1.1,0-2-.9-2-2V8c0-1.1,.9-2,2-2h6c1.1,0,2,.9,2,2v10Zm17,152c0,1.1-.9,2-2,2h-6c-1.1,0-2-.9-2-2v-10c0-1.1,.9-2,2-2h6c1.1,0,2,.9,2,2v10Zm0-152c0,1.1-.9,2-2,2h-6c-1.1,0-2-.9-2-2V8c0-1.1,.9-2,2-2h6c1.1,0,2,.9,2,2v10Zm17,152c0,1.1-.9,2-2,2h-6c-1.1,0-2-.9-2-2v-10c0-1.1,.9-2,2-2h6c1.1,0,2,.9,2,2v10Zm0-152c0,1.1-.9,2-2,2h-6c-1.1,0-2-.9-2-2V8c0-1.1,.9-2,2-2h6c1.1,0,2,.9,2,2v10Zm17,152c0,1.1-.9,2-2,2h-6c-1.1,0-2-.9-2-2v-10c0-1.1,.9-2,2-2h6c1.1,0,2,.9,2,2v10Zm0-152c0,1.1-.9,2-2,2h-6c-1.1,0-2-.9-2-2V8c0-1.1,.9-2,2-2h6c1.1,0,2,.9,2,2v10Zm17,152c0,1.1-.9,2-2,2h-6c-1.1,0-2-.9-2-2v-10c0-1.1,.9-2,2-2h6c1.1,0,2,.9,2,2v10Zm0-152c0,1.1-.9,2-2,2h-6c-1.1,0-2-.9-2-2V8c0-1.1,.9-2,2-2h6c1.1,0,2,.9,2,2v10Zm17,152c0,1.1-.9,2-2,2h-6c-1.1,0-2-.9-2-2v-10c0-1.1,.9-2,2-2h6c1.1,0,2,.9,2,2v10Zm0-152c0,1.1-.9,2-2,2h-6c-1.1,0-2-.9-2-2V8c0-1.1,.9-2,2-2h6c1.1,0,2,.9,2,2v10Z"/></svg>