<?xml version="1.0" encoding="UTF-8"?><svg id="_레이어_2" xmlns="http://www.w3.org/2000/svg" viewBox="0 0 256 179"><path d="M0,0V8C0,6.9,.9,6,2,6H8c1.1,0,2,.9,2,2v10c0,1.1-.9,2-2,2H2C.9,20,0,19.1,0,18V160C0,158.9,.9,158,2,158H8c1.1,0,2,.9,2,2v10c0,1.1-.9,2-2,2H2C.9,172,0,171.1,0,170v9H256V0H0ZM27,170c0,1.1-.9,2-2,2h-6c-1.1,0-2-.9-2-2v-10c0-1.1,.9-2,2-2h6c1.1,0,2,.9,2,2v10Zm0-152c0,1.1-.9,2-2,2h-6c-1.1,0-2-.9-2-2V8c0-1.1,.9-2,2-2h6c1.1,0,2,.9,2,2v10Zm17,152c0,1.1-.9,2-2,2h-6c-1.1,0-2-.9-2-2v-10c0-1.1,.9-2,2-2h6c1.1,0,2,.9,2,2v10Zm0-152c0,1.1-.9,2-2,2h-6c-1.1,0-2-.9-2-2V8c0-1.1,.9-2,2-2h6c1.1,0,2,.9,2,2v10Zm17,152c0,1.1-.9,2-2,2h-6c-1.1,0-2-.9-2-2v-10c0-1.1,.9-2,2-2h6c1.1,0,2,.9,2,2v10Zm0-152c0,1.1-.9,2-2,2h-6c-1.1,0-2-.9-2-2V8c0-1.1,.9-2,2-2h6c1.1,0,2,.9,2,2v10Zm17,152c0,1.1-.9,2-2,2h-6c-1.1,0-2-.9-2-2v-10c0-1.1,.9-2,2-2h6c1.1,0,2,.9,2,2v10Zm0-152c0,1.1-.9,2-2,2h-6c-1.1,0-2-.9-2-2V8c0-1.1,.9-2,2-2h6c1.1,0,2,.9,2,2v10Zm17,152c0,1.1-.9,2-2,2h-6c-1.1,0-2-.9-2-2v-10c0-1.1,.9-2,2-2h6c1.1,0,2,.9,2,2v10Zm0-152c0,1.1-.9,2-2,2h-6c-1.1,0-2-.9-2-2V8c0-1.1,.9-2,2-2h6c1.1,0,2,.9,2,2v10Zm17,152c0,1.1-.9,2-2,2h-6c-1.1,0-2-.9-2-2v-10c0-1.1,.9-2,2-2h6c1.1,0,2,.9,2,2v10Zm0-152c0,1.1-.9,2-2,2h-6c-1.1,0-2-.9-2-2V8c0-1.1,.9-2,2-2h6c1.1,0,2,.9,2,2v10Zm17,152c0,1.1-.9,2-2,2h-6c-1.1,0-2-.9-2-2v-10c0-1.1,.9-2,2-2h6c1.1,0,2,.9,2,2v10Zm0-152c0,1.1-.9,2-2,2h-6c-1.1,0-2-.9-2-2V8c0-1.1,.9-2,2-2h6c1.1,0,2,.9,2,2v10Zm17,152c0,1.1-.9,2-2,2h-6c-1.1,0-2-.9-2-2v-10c0-1.1,.9-2,2-2h6c1.1,0,2,.9,2,2v10Zm0-152c0,1.1-.9,2-2,2h-6c-1.1,0-2-.9-2-2V8c0-1.1,.9-2,2-2h6c1.1,0,2,.9,2,2v10Zm18,152c0,1.1-.9,2-2,2h-6c-1.1,0-2-.9-2-2v-10c0-1.1,.9-2,2-2h6c1.1,0,2,.9,2,2v10Zm0-152c0,1.1-.9,2-2,2h-6c-1.1,0-2-.9-2-2V8c0-1.1,.9-2,2-2h6c1.1,0,2,.9,2,2v10Zm17,152c0,1.1-.9,2-2,2h-6c-1.1,0-2-.9-2-2v-10c0-1.1,.9-2,2-2h6c1.1,0,2,.9,2,2v10Zm0-152c0,1.1-.9,2-2,2h-6c-1.1,0-2-.9-2-2V8c0-1.1,.9-2,2-2h6c1.1,0,2,.9,2,2v10Zm17,152c0,1.1-.9,2-2,2h-6c-1.1,0-2-.9-2-2v-10c0-1.1,.9-2,2-2h6c1.1,0,2,.9,2,2v10Zm0-152c0,1.1-.9,2-2,2h-6c-1.1,0-2-.9-2-2V8c0-1.1,.9-2,2-2h6c1.1,0,2,.9,2,2v10Zm17,152c0,1.1-.9,2-2,2h-6c-1.1,0-2-.9-2-2v-10c0-1.1,.9-2,2-2h6c1.1,0,2,.9,2,2v10Zm0-152c0,1.1-.9,2-2,2h-6c-1.1,0-2-.9-2-2V8c0-1.1,.9-2,2-2h6c1.1,0,2,.9,2,2v10Zm17,152c0,1.1-.9,2-2,2h-6c-1.1,0-2-.9-2-2v-10c0-1.1,.9-2,2-2h6c1.1,0,2,.9,2,2v10Zm0-152c0,1.1-.9,2-2,2h-6c-1.1,0-2-.9-2-2V8c0-1.1,.9-2,2-2h6c1.1,0,2,.9,2,2v10Zm17,152c0,1.1-.9,2-2,2h-6c-1.1,0-2-.9-2-2v-10c0-1.1,.9-2,2-2h6c1.1,0,2,.9,2,2v10Zm0-152c0,1.1-.9,2-2,2h-6c-1.1,0-2-.9-2-2V8c0-1.1,.9-2,2-2h6c1.1,0,2,.9,2,2v10Z"/></svg>