<?xml version="1.0" encoding="UTF-8"?><svg style="overflow:hidden;" id="_레이어_1" xmlns="http://www.w3.org/2000/svg" viewBox="0 0 126.15 1080"><defs><style>.cls-1{fill-rule:evenodd;}</style></defs><path class="cls-1" d="M1987-107l-11,1306-1016.5-33.98-1016.5,33.98L-68-107l1027.5,1,1027.5-1ZM408,32c-119.03,2.65-259.61-5.25-324,90-54.95,81.28-46.78,305.39-44,433,2.72,124.45,21.32,313.35,78,382,86.48,104.74,227.28,124,348,124s260.33,19.88,350-85c52.49-61.39,136.35-57.49,143.5-57.03,7.15-.45,91.01-4.36,143.5,57.03,89.67,104.88,229.28,85,350,85s261.52-19.26,348-124c56.68-68.65,75.28-257.55,78-382,2.78-127.61,10.95-351.72-44-433-64.39-95.25-204.97-87.35-324-90-201.84-4.5-331.91,4.59-410,49-50.6,28.77-124.33,31.68-140,31.97v.03s-.46,0-1.33-.01c-1.09,.01-1.67,.01-1.67,.01v-.04c-15.33-.34-86.45-3.44-140-31.96-79.29-42.22-208.16-53.5-410-49Z"/></svg>